<?xml version="1.0" standalone="no"?>
<!DOCTYPE svg PUBLIC "-//W3C//DTD SVG 20010904//EN"
 "http://www.w3.org/TR/2001/REC-SVG-20010904/DTD/svg10.dtd">
<svg version="1.0" xmlns="http://www.w3.org/2000/svg"
 width="500.000000pt" height="500.000000pt" viewBox="0 0 500.000000 500.000000"
 preserveAspectRatio="xMidYMid meet">
<metadata>
Created by potrace 1.11, written by Peter Selinger 2001-2013
</metadata>
<g transform="translate(0.000000,500.000000) scale(0.100000,-0.100000)"
fill="#000000" stroke="none">
<path d="M1515 4830 c-39 -22 -77 -44 -85 -49 -8 -5 -118 -69 -245 -142 -126
-73 -241 -140 -255 -150 l-25 -17 1 -423 c2 -479 1 -449 13 -449 4 0 171 -94
370 -210 l363 -210 46 25 c26 14 70 38 97 54 28 17 61 36 75 44 14 7 126 72
250 143 124 72 236 137 250 145 14 8 27 15 30 17 3 2 5 196 6 430 0 362 -2
430 -14 445 -8 9 -18 17 -23 17 -4 0 -63 33 -130 73 -68 40 -212 123 -320 185
l-196 112 -69 0 c-63 0 -76 -4 -139 -40z"/>
<path d="M3065 4718 c-143 -83 -276 -160 -295 -170 -89 -51 -120 -70 -121 -76
-1 -4 -2 -199 -3 -434 l-1 -426 87 -51 c48 -28 92 -51 98 -51 5 0 10 -4 10
-10 0 -5 4 -10 9 -10 5 0 129 -69 276 -154 174 -101 273 -153 283 -148 10 3
46 23 81 45 35 21 74 43 85 48 12 5 42 22 67 37 25 15 146 85 270 156 123 71
226 131 229 134 3 2 5 197 6 433 0 378 -2 431 -15 442 -15 13 -295 176 -411
240 -30 17 -79 45 -108 64 -29 18 -56 33 -60 33 -4 0 -24 11 -44 25 -31 21
-48 25 -110 25 l-73 -1 -260 -151z"/>
<path d="M759 3385 c-13 -8 -31 -17 -39 -21 -7 -4 -79 -46 -160 -92 -80 -47
-165 -97 -191 -111 -25 -14 -110 -63 -190 -109 l-144 -83 0 -429 c0 -369 2
-431 15 -443 21 -19 717 -419 733 -421 6 0 179 95 382 213 l370 213 0 432 0
431 -85 51 c-85 50 -404 235 -470 272 -19 10 -59 33 -88 50 -101 61 -106 62
-133 47z"/>
<path d="M2320 3282 c-466 -269 -525 -304 -534 -313 -14 -13 -14 -858 -1 -869
10 -8 263 -156 354 -207 24 -13 108 -62 188 -108 79 -47 156 -91 172 -100 29
-14 32 -13 378 187 191 111 359 208 373 216 l25 15 0 433 0 432 -195 113
c-107 62 -275 159 -373 216 -98 56 -179 103 -180 103 -1 0 -94 -53 -207 -118z"/>
<path d="M3935 3199 c-187 -109 -352 -204 -367 -211 -16 -7 -29 -15 -29 -18
-1 -3 -2 -199 -3 -436 l-1 -432 163 -93 c89 -52 182 -105 206 -119 23 -14 119
-69 212 -123 l170 -97 354 204 355 205 3 454 2 455 -112 65 c-455 263 -603
347 -608 346 -3 -1 -158 -91 -345 -200z"/>
<path d="M1275 1673 l-370 -215 0 -429 c0 -264 4 -432 10 -438 6 -5 80 -50
165 -99 85 -49 227 -131 315 -182 88 -50 183 -105 210 -121 l51 -28 196 113
c108 62 202 116 210 120 7 4 22 12 33 19 11 7 76 44 145 84 69 40 134 79 145
87 19 14 20 26 20 445 l0 430 -369 213 c-202 117 -373 214 -380 215 -6 1 -177
-95 -381 -214z"/>
<path d="M3325 1851 c-33 -21 -85 -51 -115 -68 -201 -112 -547 -315 -555 -327
-6 -8 -10 -168 -9 -434 0 -422 3 -452 35 -452 5 0 46 -22 91 -49 46 -27 99
-58 118 -69 19 -10 139 -79 265 -152 127 -73 233 -134 236 -136 6 -3 48 20
464 261 121 70 236 136 256 147 l35 20 0 433 c-1 238 -3 435 -6 437 -5 5 -187
110 -265 153 -22 13 -123 71 -225 130 -251 146 -250 145 -258 144 -4 0 -34
-17 -67 -38z"/>
</g>
</svg>
